# xmcd
#
# Track frame offsets:
#	150
#	14369
#	30238
#	44074
#	62170
#	77090
#	89555
#	104696
#	122685
#	136702
#	148544
#	164370
#
# Disc length: 2457 seconds
#
# Revision: 1
# Processed by: cddbd v1.5.2PL0 Copyright (c) Steve Scherf et al.
# Submitted via: EZCDAudioConverter 9.0.2.1
#
DISCID=a009970c
DTITLE=Merle Haggard - Unforgettable
DYEAR=2004
DGENRE=Country
TTITLE0=As Time Goes By
TTITLE1=Gypsy
TTITLE2=Unforgettable
TTITLE3=Stardust
TTITLE4=I Can't Get Started
TTITLE5=Still Missing You
TTITLE6=Pennies From Heaven
TTITLE7=Cry Me A River
TTITLE8=I'll Get By (As Long As I Have You)
TTITLE9=You're Nobody 'Til Somebody Loves You
TTITLE10=What Love Can Do
TTITLE11=Goin' Away Party
EXTD=
EXTT0=
EXTT1=
EXTT2=
EXTT3=
EXTT4=
EXTT5=
EXTT6=
EXTT7=
EXTT8=
EXTT9=
EXTT10=
EXTT11=
PLAYORDER=
